<?xml version="1.0" encoding="utf-8"?>
<!-- Generator: Adobe Illustrator 26.0.3, SVG Export Plug-In . SVG Version: 6.00 Build 0)  -->
<svg version="1.1" id="Layer_1" xmlns="http://www.w3.org/2000/svg" xmlns:xlink="http://www.w3.org/1999/xlink" x="0px" y="0px"
	 viewBox="0 0 36 36" style="enable-background:new 0 0 36 36;" xml:space="preserve">
<style type="text/css">
	.st0{fill:#FFFFFF;}
</style>
<path class="st0" d="M15.9,32.9c-0.1,0-0.3-0.1-0.4-0.1c-0.2-0.2-0.2-0.5,0-0.7l1.3-1.3l-1.2-0.1c-7.5-0.7-13-4.4-13-8.9
	c0-2.5,1.8-5,5-6.7l0.3-0.2V8.4V8.3C8,8.1,8,8.1,8,8.1L8.1,8h0.1l9.6-4.8c0.1,0,0.1-0.1,0.2-0.1s0.2,0,0.2,0.1L27.8,8h0.1v0.1
	c0,0,0.1,0.1,0.1,0.2c0,0.1,0,0.1,0,0.2V15l0.3,0.2c3.2,1.7,5,4.1,5,6.7c0,3.6-3.4,6.7-8.9,8.2h-0.1c-0.2,0-0.4-0.2-0.5-0.4
	c0-0.1,0-0.3,0-0.4c0.1-0.1,0.2-0.2,0.3-0.2c5-1.4,8.2-4.2,8.2-7.2c0-1.9-1.2-3.7-3.5-5.2L28.1,16v4.1c0,0.2-0.1,0.4-0.3,0.4
	l-9.6,4.8c-0.1,0-0.1,0.1-0.2,0.1s-0.2,0-0.2-0.1l-9.6-4.8c-0.2-0.1-0.3-0.3-0.3-0.4V16L7,16.6c-2.2,1.5-3.5,3.3-3.5,5.2
	c0,3.8,4.9,7.1,11.6,7.9l1.6,0.2l-1.3-1.3c-0.2-0.2-0.2-0.5,0-0.7c0.1-0.1,0.2-0.1,0.4-0.1s0.3,0.1,0.4,0.1l2.1,2.1
	c0.2,0.2,0.2,0.5,0,0.7l-2.1,2.1C16.1,32.8,16,32.9,15.9,32.9z M18.5,13.5v10.6l8.6-4.3V9.2L18.5,13.5z M8.9,19.8l8.6,4.3V13.5
	L8.9,9.2V19.8z M9.5,8.4l8.5,4.2l8.5-4.2L18,4.2L9.5,8.4z"/>
</svg>
