<?xml version="1.0" encoding="utf-8"?>
<!-- Generator: Adobe Illustrator 26.0.3, SVG Export Plug-In . SVG Version: 6.00 Build 0)  -->
<svg version="1.1"
	 id="Layer_1" xmlns:cc="http://creativecommons.org/ns#" xmlns:dc="http://purl.org/dc/elements/1.1/" xmlns:inkscape="http://www.inkscape.org/namespaces/inkscape" xmlns:rdf="http://www.w3.org/1999/02/22-rdf-syntax-ns#" xmlns:sodipodi="http://sodipodi.sourceforge.net/DTD/sodipodi-0.dtd" xmlns:svg="http://www.w3.org/2000/svg"
	 xmlns="http://www.w3.org/2000/svg" xmlns:xlink="http://www.w3.org/1999/xlink" x="0px" y="0px" viewBox="0 0 100 100"
	 style="enable-background:new 0 0 100 100;" xml:space="preserve">
<style type="text/css">
	.st0{fill:#FFFFFF;}
</style>
<g transform="translate(0,-952.36218)">
	<path class="st0" d="M15,962.4c-2.8,0-5,2.2-5,5v26c0,2.8,2.2,5,5,5h26c2.8,0,5-2.2,5-5v-26c0-2.8-2.2-5-5-5H15z M59,962.4
		c-2.8,0-5,2.2-5,5v26c0,2.8,2.2,5,5,5h26c2.8,0,5-2.2,5-5v-26c0-2.8-2.2-5-5-5H59z M15,964.4h26c1.7,0,3,1.3,3,3v26
		c0,1.7-1.3,3-3,3H15c-1.7,0-3-1.3-3-3v-26C12,965.7,13.3,964.4,15,964.4z M59,964.4h26c1.7,0,3,1.3,3,3v26c0,1.7-1.3,3-3,3H59
		c-1.7,0-3-1.3-3-3v-26C56,965.7,57.3,964.4,59,964.4z M71.9,1006.3c-0.5,0.1-0.9,0.5-0.9,1v16H55c-0.1,0-0.1,0-0.2,0
		c-0.6,0.1-1,0.5-0.9,1.1c0.1,0.6,0.5,1,1.1,0.9h16v16c0,0.6,0.4,1,1,1s1-0.4,1-1c0,0,0,0,0,0v-16h16c0.6,0,1-0.4,1-1
		c0-0.6-0.4-1-1-1c0,0,0,0,0,0H73v-16c0-0.6-0.4-1-1-1C72,1006.3,71.9,1006.3,71.9,1006.3z M15,1006.4c-2.8,0-5,2.2-5,5v26
		c0,2.8,2.2,5,5,5h26c2.8,0,5-2.2,5-5v-26c0-2.8-2.2-5-5-5H15z M15,1008.4h26c1.7,0,3,1.3,3,3v26c0,1.7-1.3,3-3,3H15
		c-1.7,0-3-1.3-3-3v-26C12,1009.7,13.3,1008.4,15,1008.4z"/>
</g>
</svg>
