<?xml version="1.0" encoding="utf-8"?>
<!-- Generator: Adobe Illustrator 26.0.3, SVG Export Plug-In . SVG Version: 6.00 Build 0)  -->
<svg version="1.1" id="Layer_1" xmlns:serif="http://www.serif.com/"
	 xmlns="http://www.w3.org/2000/svg" xmlns:xlink="http://www.w3.org/1999/xlink" x="0px" y="0px" viewBox="0 0 32 32"
	 style="enable-background:new 0 0 32 32;" xml:space="preserve">
<style type="text/css">
	.st0{fill-rule:evenodd;clip-rule:evenodd;fill:#FFFFFF;}
</style>
<g transform="matrix(1,0,0,1,-126,-126)">
	<path class="st0" d="M131,153.4c-0.7,0-1.3-0.3-1.7-0.7c-0.5-0.5-0.7-1.1-0.7-1.7v-18c0-1.3,1.1-2.4,2.4-2.4h22
		c0.7,0,1.3,0.3,1.7,0.7c0.5,0.5,0.7,1.1,0.7,1.7v18c0,1.3-1.1,2.4-2.4,2.4H131z M129.4,151c0,0.4,0.2,0.8,0.5,1.1s0.7,0.5,1.1,0.5
		h22c0.9,0,1.6-0.7,1.6-1.6v-13.6h-25.1V151H129.4z M131,131.4c-0.9,0-1.6,0.7-1.6,1.6v3.6h25.1V133c0-0.4-0.2-0.8-0.5-1.1
		s-0.7-0.5-1.1-0.5H131z M142,148.4c-0.2,0-0.4-0.2-0.4-0.4v-5l-1.4,1.4c-0.1,0.1-0.2,0.1-0.3,0.1s-0.2,0-0.3-0.1s-0.1-0.2-0.1-0.3
		s0-0.2,0.1-0.3l2.1-2.1c0.1-0.1,0.2-0.1,0.3-0.1s0.2,0,0.3,0.1l2.1,2.1c0.1,0.1,0.1,0.2,0.1,0.3s0,0.2-0.1,0.3s-0.2,0.1-0.3,0.1
		s-0.2,0-0.3-0.1l-1.4-1.4v5C142.4,148.2,142.2,148.4,142,148.4z M151,134.4c-0.2,0-0.4-0.2-0.4-0.4s0.2-0.4,0.4-0.4h1
		c0.2,0,0.4,0.2,0.4,0.4s-0.2,0.4-0.4,0.4H151z M148,134.4c-0.2,0-0.4-0.2-0.4-0.4s0.2-0.4,0.4-0.4s0.4,0.2,0.4,0.4
		S148.2,134.4,148,134.4z"/>
</g>
</svg>
