<?xml version="1.0" encoding="utf-8"?>
<!-- Generator: Adobe Illustrator 26.0.3, SVG Export Plug-In . SVG Version: 6.00 Build 0)  -->
<svg version="1.1" xmlns="http://www.w3.org/2000/svg" xmlns:xlink="http://www.w3.org/1999/xlink" x="0px" y="0px"
	 viewBox="0 0 100 100" style="enable-background:new 0 0 100 100;" xml:space="preserve">
<style type="text/css">
	.st0{fill-rule:evenodd;clip-rule:evenodd;fill:#F3F2EF;}
</style>
<g id="gear_x5F_3">
	<path class="st0" d="M53.9,70.4l0.1,0.9l0.2,0.9l0.4,0.9l0.5,0.8l0.6,0.7l0.7,0.6l0.8,0.5l0.9,0.4l0.9,0.2l0.9,0.1l0.9-0.1l0.9-0.2
		l0.9-0.4l0.8-0.5l0.7-0.6l0.6-0.7l0.5-0.8l0.4-0.9l0.2-0.9l0.1-0.9l-0.1-0.9l-0.2-0.9l-0.4-0.9l-0.5-0.8l-0.6-0.7l-0.7-0.6L62.7,65
		l-0.9-0.4l-0.9-0.2l-0.9-0.1L59,64.4l-0.9,0.2L57.2,65l-0.8,0.5l-0.7,0.6l-0.6,0.7l-0.5,0.8l-0.4,0.9L54,69.4L53.9,70.4 M44.7,72.5
		l-0.1-1.4v-1.4l0.1-1.4l3.6-1l0.3-1l0.4-1l0.5-0.9l-1.9-3.2l0.9-1.1l1-1l1.1-0.9l3.2,1.9l0.9-0.5l1-0.4l1-0.3l1-3.6l1.4-0.1h1.4
		l1.4,0.1l1,3.6l1,0.3l1,0.4l0.9,0.5l3.2-1.9l1.1,0.9l1,1l0.9,1.1l-1.9,3.2l0.5,0.9l0.4,1l0.3,1l3.6,1l0.1,1.1l0,1.1l0,1.1l-0.1,1.1
		l-3.6,1l-0.3,1l-0.4,1l-0.5,0.9l1.9,3.2l-0.9,1.1l-1,1l-1.1,0.9L66,80.8L65,81.3l-1,0.4l-1,0.3l-1,3.6l-1.4,0.1h-1.4l-1.4-0.1
		l-1-3.6l-1-0.3l-1-0.4l-0.9-0.5l-3.2,1.9l-1.1-0.9l-1-1l-0.9-1.1l1.9-3.2L49,75.5l-0.4-1l-0.3-1L44.7,72.5"/>
</g>
<g id="gear_x5F_2">
	<path class="st0" d="M45.1,47.7l-0.4-0.8l-0.6-0.8l-0.7-0.7l-0.8-0.6l-0.8-0.4L41,44.1L40,44h-0.9l-0.9,0.1l-0.9,0.3l-0.8,0.4
		l-0.8,0.6L35,46.1l-0.6,0.8L34,47.7l-0.3,0.9l-0.1,0.9v0.9l0.1,0.9l0.3,0.9l0.4,0.8l0.6,0.8l0.7,0.7l0.8,0.6l0.8,0.4l0.9,0.3
		l0.9,0.1H40l0.9-0.1l0.9-0.3l0.8-0.4l0.8-0.6l0.7-0.7l0.6-0.8l0.4-0.8l0.3-0.9l0.1-0.9v-0.9l-0.1-0.9L45.1,47.7 M24.7,53.8l3-2.3
		l-0.1-1v-1.1l0.1-1l-3-2.3l0.4-1.4l0.6-1.3l0.7-1.3l3.7,0.5l0.7-0.8l0.7-0.7l0.8-0.7l-0.5-3.7l1.3-0.7l1.3-0.6l1.4-0.4l2.3,3l1-0.1
		h1.1l1,0.1l2.3-3l1.4,0.4l1.3,0.6l1.3,0.7l-0.5,3.7l0.8,0.7l0.7,0.7l0.7,0.8l3.7-0.5l0.7,1.3l0.6,1.3l0.4,1.4l-3,2.3l0.1,1v1.1
		l-0.1,1l3,2.3l-0.4,1.4l-0.6,1.3l-0.7,1.3l-3.7-0.5l-0.7,0.8l-0.7,0.7l-0.8,0.7l0.5,3.7l-1.3,0.7l-1.3,0.6l-1.4,0.4l-2.3-3l-1,0.1
		H39L38,62l-2.3,3l-1.4-0.4L33,63.9l-1.3-0.7l0.5-3.7l-0.8-0.7l-0.7-0.7L30,57.3l-3.7,0.5l-0.7-1.3l-0.6-1.3L24.7,53.8"/>
</g>
<g id="gear_x5F_1">
	<path class="st0" d="M53.9,29.6l0.1,0.9l0.2,0.9l0.4,0.9l0.5,0.8l0.6,0.7l0.7,0.6l0.8,0.5l0.9,0.4l0.9,0.2l0.9,0.1l0.9-0.1l0.9-0.2
		l0.9-0.4l0.8-0.5l0.7-0.6l0.6-0.7l0.5-0.8l0.4-0.9l0.2-0.9l0.1-0.9l-0.1-0.9l-0.2-0.9l-0.4-0.9l-0.5-0.8l-0.6-0.7l-0.7-0.6
		l-0.8-0.5l-0.9-0.4l-0.9-0.2l-0.9-0.1L59,23.7l-0.9,0.2l-0.9,0.4l-0.8,0.5l-0.7,0.6l-0.6,0.7l-0.5,0.8l-0.4,0.9L54,28.7L53.9,29.6
		 M44.6,30.4v-1.4l0.1-1.4l3.6-1l0.3-1l0.4-1l0.5-0.9l-1.9-3.2l0.9-1.1l1-1l1.1-0.9l3.2,1.9l0.9-0.5l1-0.4l1-0.3l1-3.6l1.4-0.1h1.4
		l1.4,0.1l1,3.6l1,0.3l1,0.4l0.9,0.5l3.2-1.9l1.1,0.9l1,1l0.9,1.1l-1.9,3.2l0.5,0.9l0.4,1l0.3,1l3.6,1l0.1,1.1l0,1.1l0,1.1l-0.1,1.1
		l-3.6,1l-0.3,1l-0.4,1l-0.5,0.9l1.9,3.2L71.3,40l-1,1l-1.1,0.9L66,40.1L65,40.6l-1,0.4l-1,0.3l-1,3.6L60.7,45h-1.4l-1.4-0.1l-1-3.6
		l-1-0.3l-1-0.4l-0.9-0.5l-3.2,1.9L49.6,41l-1-1l-0.9-1.1l1.9-3.2L49,34.7l-0.4-1l-0.3-1l-3.6-1L44.6,30.4"/>
</g>
</svg>
