<?xml version="1.0" encoding="utf-8"?>
<!-- Generator: Adobe Illustrator 26.0.3, SVG Export Plug-In . SVG Version: 6.00 Build 0)  -->
<svg version="1.1" id="Layer_1" xmlns="http://www.w3.org/2000/svg" xmlns:xlink="http://www.w3.org/1999/xlink" x="0px" y="0px"
	 viewBox="0 0 62 62" style="enable-background:new 0 0 62 62;" xml:space="preserve">
<style type="text/css">
	.st0{fill:none;stroke:#000000;stroke-width:2;stroke-linecap:round;stroke-linejoin:round;stroke-miterlimit:10;}
</style>
<g>
	<path class="st0" d="M55,9V15H11.6V9c0-1.1,0.9-2,2-2H53C54.1,7,55,7.9,55,9z"/>
	<g>
		<line class="st0" x1="26.4" y1="11" x2="51.2" y2="11"/>
		<line class="st0" x1="15.4" y1="11" x2="15.4" y2="11"/>
		<line class="st0" x1="19.9" y1="11" x2="19.9" y2="11"/>
	</g>
	<polygon class="st0" points="23.2,47.7 20.3,49.1 21.4,52.1 20.2,53.2 17.2,52.1 15.9,55 14.3,55 12.9,52.1 9.9,53.2 8.8,52.1 
		9.9,49.1 7,47.7 7,46.1 9.9,44.8 8.8,41.8 9.9,40.6 12.9,41.7 14.3,38.8 15.9,38.8 17.2,41.7 20.2,40.6 21.4,41.8 20.3,44.8 
		23.2,46.1 	"/>
	<path class="st0" d="M11.6,15v26.2l1.4,0.5l1.3-2.9h1.6l1.3,2.9l3-1.1l1.1,1.1l-1.1,3l2.9,1.3v1.6l-2.9,1.3l0.5,1.4H53
		c1.1,0,2-0.9,2-2V15H11.6z"/>
	<circle class="st0" cx="15.1" cy="46.9" r="2.5"/>
	<path d="M21.8,33.2l7.6-3.9v1.1L23,33.6v0l6.4,3.2V38l-7.6-3.9V33.2z"/>
	<path d="M30.5,38.7L35,26.8h1.1l-4.6,11.9H30.5z"/>
	<path d="M44.8,34.1L37.2,38v-1.1l6.5-3.2v0l-6.5-3.2v-1.1l7.6,3.9V34.1z"/>
</g>
</svg>
