<?xml version="1.0" encoding="utf-8"?>
<!-- Generator: Adobe Illustrator 26.0.3, SVG Export Plug-In . SVG Version: 6.00 Build 0)  -->
<svg version="1.1" id="Layer_1" xmlns="http://www.w3.org/2000/svg" xmlns:xlink="http://www.w3.org/1999/xlink" x="0px" y="0px"
	 viewBox="0 0 64 64" style="enable-background:new 0 0 64 64;" xml:space="preserve">
<g>
	<g>
		<path d="M49,55.9c-1.6,0-2.9-1.3-2.9-2.9V11c0-1.6,1.3-2.9,2.9-2.9h10c1.6,0,2.9,1.3,2.9,2.9v42c0,1.6-1.3,2.9-2.9,2.9H49z
			 M49,9.9c-0.6,0-1.1,0.5-1.1,1.1v42c0,0.6,0.5,1.1,1.1,1.1h10c0.6,0,1.1-0.5,1.1-1.1V11c0-0.6-0.5-1.1-1.1-1.1H49z"/>
		<path d="M51,32.9c-0.5,0-0.9-0.4-0.9-0.9V16c0-0.5,0.4-0.9,0.9-0.9h6c0.5,0,0.9,0.4,0.9,0.9v16c0,0.5-0.4,0.9-0.9,0.9H51z
			 M56.1,31.1V16.9h-4.2v14.2H56.1z"/>
		<path d="M54,44.9c-1.6,0-2.9-1.3-2.9-2.9s1.3-2.9,2.9-2.9s2.9,1.3,2.9,2.9S55.6,44.9,54,44.9z M54,40.9c-0.6,0-1.1,0.5-1.1,1.1
			s0.5,1.1,1.1,1.1s1.1-0.5,1.1-1.1S54.6,40.9,54,40.9z"/>
		<path d="M31,55.9c-1.6,0-2.9-1.3-2.9-2.9V11c0-1.6,1.3-2.9,2.9-2.9h10c1.6,0,2.9,1.3,2.9,2.9v42c0,1.6-1.3,2.9-2.9,2.9H31z
			 M31,9.9c-0.6,0-1.1,0.5-1.1,1.1v42c0,0.6,0.5,1.1,1.1,1.1h10c0.6,0,1.1-0.5,1.1-1.1V11c0-0.6-0.5-1.1-1.1-1.1H31z"/>
		<path d="M33,32.9c-0.5,0-0.9-0.4-0.9-0.9v-4c0-0.5,0.4-0.9,0.9-0.9c0.5,0,0.9,0.4,0.9,0.9v3.1h4.2V16.9h-4.2V20
			c0,0.5-0.4,0.9-0.9,0.9c-0.5,0-0.9-0.4-0.9-0.9v-4c0-0.5,0.4-0.9,0.9-0.9h6c0.5,0,0.9,0.4,0.9,0.9v16c0,0.5-0.4,0.9-0.9,0.9H33z"
			/>
		<path d="M36,44.9c-1.6,0-2.9-1.3-2.9-2.9s1.3-2.9,2.9-2.9s2.9,1.3,2.9,2.9S37.6,44.9,36,44.9z M36,40.9c-0.6,0-1.1,0.5-1.1,1.1
			s0.5,1.1,1.1,1.1s1.1-0.5,1.1-1.1S36.6,40.9,36,40.9z"/>
		<path d="M15.3,56.4c-0.2,0-0.3,0-0.3,0l-0.1-0.1L5,54.6c-0.7-0.2-1.4-0.6-1.9-1.2c-0.5-0.5-0.6-1.3-0.5-2.1L9.9,9.9
			c0.3-1.3,1.4-2.3,2.8-2.3c0.2,0,0.3,0,0.3,0l0.1,0.1L23,9.4c0.8,0.1,1.4,0.5,1.9,1.2c0.4,0.6,0.6,1.4,0.5,2.2L18,54.2
			C17.8,55.4,16.7,56.4,15.3,56.4z M12.7,9.4c-0.5,0-0.9,0.4-1,0.7l-0.1,0.1L4.3,51.7c0,0.8,0.4,1.1,0.8,1.2l10,1.7
			c0.5,0,0.9-0.3,1.2-0.7l0.1-0.1l7.3-41.5c0-0.8-0.4-1.1-0.8-1.2L12.7,9.4L12.7,9.4z"/>
		<path d="M16.8,33.4l-5.9-1c-0.2-0.1-0.4-0.2-0.6-0.4c-0.1-0.2-0.2-0.4-0.1-0.6L13,15.6c0.1-0.4,0.5-0.7,0.9-0.7h0.2l5.9,1
			c0.2,0,0.5,0.2,0.6,0.4c0.1,0.1,0.2,0.3,0.1,0.6l-2.8,15.8c-0.1,0.4-0.5,0.7-0.9,0.7H16.8z M16.2,31.5l2.5-14l-4.2-0.7l-2.5,14
			L16.2,31.5z"/>
		<circle cx="33" cy="24" r="0.9"/>
		<path d="M12.2,44.9c-1.6,0-2.9-1.3-2.9-2.9s1.3-2.9,2.9-2.9s2.9,1.3,2.9,2.9S13.8,44.9,12.2,44.9z M12.2,40.9
			c-0.6,0-1.1,0.5-1.1,1.1s0.5,1.1,1.1,1.1s1.1-0.5,1.1-1.1S12.8,40.9,12.2,40.9z"/>
	</g>
</g>
</svg>
