<?xml version="1.0" encoding="utf-8"?>
<!-- Generator: Adobe Illustrator 26.0.3, SVG Export Plug-In . SVG Version: 6.00 Build 0)  -->
<svg version="1.1" id="Layer_1" xmlns="http://www.w3.org/2000/svg" xmlns:xlink="http://www.w3.org/1999/xlink" x="0px" y="0px"
	 viewBox="0 0 100 100" style="enable-background:new 0 0 100 100;" xml:space="preserve">
<style type="text/css">
	.st0{fill:#FFFFFF;}
</style>
<path class="st0" d="M31,94.3c-0.7,0-1.3-0.6-1.3-1.3s0.6-1.3,1.3-1.3h8.7V81.3H7c-0.7,0-1.3-0.6-1.3-1.3V24c0-0.7,0.6-1.3,1.3-1.3
	h17c0.7,0,1.3,0.6,1.3,1.3s-0.6,1.3-1.3,1.3H8.3v41.4h61.4v-7.4H67c-0.7,0-1.3-0.6-1.3-1.3v-8c0-0.7,0.6-1.3,1.3-1.3h18
	c0.7,0,1.3,0.6,1.3,1.3v8c0,0.7-0.6,1.3-1.3,1.3h-2.7v7.4h9.4V44c0-0.7,0.6-1.3,1.3-1.3s1.3,0.6,1.3,1.3v36c0,0.7-0.6,1.3-1.3,1.3
	H60.3v10.4H69c0.7,0,1.3,0.6,1.3,1.3s-0.6,1.3-1.3,1.3C69,94.3,31,94.3,31,94.3z M57.7,91.7V81.3H42.3v10.4
	C42.3,91.7,57.7,91.7,57.7,91.7z M91.7,78.7v-9.4H8.3v9.4H91.7z M79.7,66.7v-7.4h-7.4v7.4H79.7z M83.7,56.7v-5.4H68.3v5.4H83.7z
	 M36,61.3c-0.3,0-0.6-0.1-0.9-0.4c-0.3-0.3-0.4-0.6-0.4-0.9v-0.3c0-0.1,0.1-0.2,0.1-0.3C35,59.2,35,59.1,35,59
	c0.3-0.3,0.6-0.4,0.8-0.4c0.1,0,0.2,0,0.3,0h0.1c0.1,0,0.1,0,0.2,0.1l0,0h0.1c0.2,0.1,0.3,0.2,0.4,0.2c0.3,0.3,0.4,0.6,0.4,0.8
	c0,0.3-0.1,0.6-0.4,0.9C36.6,61.2,36.3,61.3,36,61.3z M26,57.3c-0.3,0-0.6-0.1-0.9-0.4c-0.3-0.3-0.4-0.6-0.4-0.9v-0.3
	c0-0.1,0.1-0.2,0.1-0.3c0.1-0.2,0.2-0.3,0.2-0.4c0.3-0.2,0.5-0.4,0.8-0.4c0.1,0,0.2,0,0.3,0h0.1c0.1,0,0.1,0,0.2,0.1h0.1
	c0.1,0.1,0.1,0.1,0.2,0.2h0.1v0.2l0.3,0.1l0.1,0.1V56c0,0.3-0.1,0.6-0.4,0.9L26.7,57C26.6,57.2,26.3,57.3,26,57.3z M46,53.3
	c-0.3,0-0.6-0.1-0.9-0.4l-0.3-0.3c0-0.1-0.1-0.1-0.1-0.2v-0.8c0-0.1,0-0.2,0.1-0.2c0.1-0.1,0.2-0.2,0.2-0.3V51h0.1l0.2-0.2
	c0.1,0,0.1-0.1,0.2-0.1l0,0h0.1c0.1,0,0.2,0,0.2,0c0.3,0,0.6,0.1,0.9,0.3h0.1v0.2l0.3,0.1l0.1,0.1v0.7c0,0.1,0,0.2-0.1,0.2
	c-0.1,0.2-0.2,0.3-0.3,0.4C46.5,53.2,46.3,53.3,46,53.3z M36,53.3c-0.7,0-1.3-0.6-1.3-1.3V42c0-10.6,8.7-19.3,19.3-19.3
	c0.7,0,1.3,0.6,1.3,1.3s-0.6,1.3-1.3,1.3c-9.2,0-16.7,7.5-16.7,16.7v10C37.3,52.7,36.7,53.3,36,53.3z M26,49.3
	c-0.7,0-1.3-0.6-1.3-1.3v-5c0-16.2,13.1-29.3,29.3-29.3c0.7,0,1.3,0.6,1.3,1.3s-0.6,1.3-1.3,1.3c-14.7,0-26.7,12-26.7,26.7v5
	C27.3,48.7,26.7,49.3,26,49.3z M46,45.3c-0.7,0-1.3-0.6-1.3-1.3v-2c0-5.1,4.2-9.3,9.3-9.3c0.7,0,1.3,0.6,1.3,1.3s-0.6,1.3-1.3,1.3
	c-3.7,0-6.7,3-6.7,6.7v2C47.3,44.7,46.7,45.3,46,45.3z M79,42.3c-4.8,0-9.4-1.9-12.9-5.4s-5.4-8.1-5.4-12.9s1.9-9.4,5.4-12.9
	S74.2,5.7,79,5.7s9.3,1.8,13,5.3c0.7,0.8,1.5,1.8,2.1,2.6c0.3,0.7,0.2,1.4-0.3,1.8L83.5,24l10.3,8.5c0.5,0.5,0.6,1.2,0.3,1.7
	c-0.5,0.9-1.2,1.7-2.1,2.6C88.4,40.4,83.8,42.3,79,42.3z M79,8.3c-4.2,0-8.1,1.6-11.1,4.6s-4.6,6.9-4.6,11.1s1.6,8.1,4.6,11.1
	s6.9,4.6,11.1,4.6s8.1-1.6,11.1-4.6c0.1-0.1,0.2-0.3,0.4-0.4c0.1-0.1,0.2-0.2,0.2-0.3l0.5-0.5L80.7,25c-0.3-0.2-0.4-0.6-0.4-1
	s0.1-0.7,0.4-0.9l10.5-8.8l-0.4-0.5c-0.2-0.4-0.5-0.6-0.7-0.8C87.1,9.9,83.2,8.3,79,8.3z M76.7,17.2c-0.2,0-0.4-0.1-0.6-0.3
	c-0.3-0.3-0.4-0.6-0.4-0.9c0-0.3,0.1-0.6,0.4-0.9c0.2-0.2,0.5-0.4,0.8-0.4c0.1,0,0.2,0,0.3,0h0.1c0.1,0,0.2,0,0.2,0.1
	c0.2,0.1,0.3,0.2,0.4,0.2c0.3,0.3,0.4,0.6,0.4,0.9c0,0.3-0.1,0.6-0.3,0.8l0,0h-0.1l-0.2,0.2c-0.1,0-0.1,0.1-0.2,0.1H77L76.7,17.2z"
	/>
</svg>
