<?xml version="1.0" encoding="utf-8"?>
<!-- Generator: Adobe Illustrator 26.0.3, SVG Export Plug-In . SVG Version: 6.00 Build 0)  -->
<svg version="1.1" id="Layer_1" xmlns="http://www.w3.org/2000/svg" xmlns:xlink="http://www.w3.org/1999/xlink" x="0px" y="0px"
	 viewBox="0 0 32 32" style="enable-background:new 0 0 32 32;" xml:space="preserve">
<path d="M3,27.5c-0.4,0-0.5-0.1-0.5-0.5V9c0-0.4,0.1-0.5,0.5-0.5h3.5V5c0-0.4,0.1-0.5,0.5-0.5h7c0.4,0,0.5,0.1,0.5,0.5v3.5H29
	c0.4,0,0.5,0.1,0.5,0.5v18c0,0.4-0.1,0.5-0.5,0.5H3z M3.5,26.5h25v-17h-25V26.5z M7.5,8.5h6v-3h-6V8.5z"/>
<path d="M16,23.5c-3,0-5.5-2.5-5.5-5.5s2.5-5.5,5.5-5.5s5.5,2.5,5.5,5.5S19,23.5,16,23.5z M16,13.5c-2.4,0-4.5,2.1-4.5,4.5
	c0,2.4,2.1,4.5,4.5,4.5c2.4,0,4.5-2.1,4.5-4.5C20.5,15.6,18.4,13.5,16,13.5z"/>
<path d="M6.4,12.9c-0.4,0-0.5-0.1-0.5-0.5c0-0.4,0.1-0.5,0.5-0.5h3c0.4,0,0.5,0.1,0.5,0.5c0,0.4-0.1,0.5-0.5,0.5H6.4z"/>
</svg>
