<?xml version="1.0" encoding="utf-8"?>
<!-- Generator: Adobe Illustrator 26.0.3, SVG Export Plug-In . SVG Version: 6.00 Build 0)  -->
<svg version="1.1"
	 id="Layer_1" xmlns:cc="http://creativecommons.org/ns#" xmlns:dc="http://purl.org/dc/elements/1.1/" xmlns:inkscape="http://www.inkscape.org/namespaces/inkscape" xmlns:rdf="http://www.w3.org/1999/02/22-rdf-syntax-ns#" xmlns:sodipodi="http://sodipodi.sourceforge.net/DTD/sodipodi-0.dtd" xmlns:svg="http://www.w3.org/2000/svg"
	 xmlns="http://www.w3.org/2000/svg" xmlns:xlink="http://www.w3.org/1999/xlink" x="0px" y="0px" viewBox="0 0 100 100"
	 style="enable-background:new 0 0 100 100;" xml:space="preserve">
<g transform="translate(0,-952.36218)">
	<path d="M49.9,1041.8l-42-4c-0.7-0.1-1.4-0.8-1.4-1.5v-72c0-0.8,0.7-1.5,1.5-1.5c0,0,0.1,0,0.1,0l41.8,4c0,0,41.9-4,41.9-4
		c0.9,0,1.6,0.8,1.6,1.5v72c0,0.7-0.6,1.4-1.4,1.5l-42,4c0,0-0.1,0-0.1,0S49.9,1041.9,49.9,1041.8z M51.5,969.7v69l39-3.7v-69
		L51.5,969.7z M9.5,1035l39,3.7v-69l-39-3.7V1035z M39.2,1026.9c-0.1,0-0.2,0-0.3,0l-20-2c-0.4,0-0.8-0.2-1.1-0.5
		c-0.3-0.3-0.4-0.7-0.4-1.1c0-0.8,0.7-1.4,1.5-1.4c0.1,0,0.1,0,0.2,0l20,2c0.9,0,1.5,0.7,1.5,1.5C40.7,1026.2,40,1026.9,39.2,1026.9
		L39.2,1026.9z M39.2,1012.9c-0.1,0-0.2,0-0.3,0l-20-2c-0.4,0-0.8-0.2-1.1-0.5c-0.3-0.3-0.4-0.7-0.4-1.1c0-0.8,0.7-1.4,1.5-1.4
		c0.1,0,0.1,0,0.2,0l20,2c0.9,0,1.5,0.7,1.5,1.5C40.7,1012.2,40,1012.9,39.2,1012.9L39.2,1012.9z M61,1006.9c-0.8,0-1.5-0.7-1.5-1.5
		v-26c0-0.7,0.6-1.4,1.4-1.5l20-2c0.8,0,1.6,0.8,1.6,1.5v26c0,0.7-0.6,1.4-1.4,1.5l-20,2C61.1,1006.9,61.1,1006.9,61,1006.9z
		 M62.5,980.7v23l17-1.7v-23L62.5,980.7z M39.2,998.9c-0.1,0-0.2,0-0.3,0l-20-2c-0.4,0-0.8-0.2-1.1-0.5c-0.3-0.3-0.4-0.7-0.4-1.1
		c0-0.8,0.7-1.4,1.5-1.4c0.1,0,0.1,0,0.2,0l20,2c0.9,0,1.5,0.7,1.5,1.5C40.7,998.2,40,998.9,39.2,998.9L39.2,998.9z M39.2,984.9
		c-0.1,0-0.2,0-0.2,0l-20-2c-0.9,0-1.5-0.7-1.5-1.6c0-0.8,0.7-1.4,1.5-1.4c0.1,0,0.1,0,0.2,0l20,2c0.9,0,1.5,0.7,1.5,1.5
		C40.7,984.2,40,984.9,39.2,984.9L39.2,984.9z"/>
</g>
</svg>
