<?xml version="1.0" encoding="utf-8"?>
<!-- Generator: Adobe Illustrator 26.0.3, SVG Export Plug-In . SVG Version: 6.00 Build 0)  -->
<svg version="1.1" id="Layer_1" xmlns="http://www.w3.org/2000/svg" xmlns:xlink="http://www.w3.org/1999/xlink" x="0px" y="0px"
	 viewBox="0 0 512 512" style="enable-background:new 0 0 512 512;" xml:space="preserve">
<style type="text/css">
	.st0{fill:#FFFFFF;}
</style>
<path class="st0" d="M502.2,240.6C502.2,240.6,502.2,240.6,502.2,240.6c0-0.4-0.1-0.7-0.1-1c-1.6-10.6-6.1-18.6-12.2-24.6
	c8.1-8.4,12.4-17.1,12.4-25.7V73c0-13.3-13.7-22.7-41.8-29c-20-4.4-41.8-6-48-6.3c-4.4-0.2-8.2,3.1-8.4,7.5c0,0.2,0,0.3,0,0.5v54.6
	c-39.7,4.5-91.6,7-147.9,7s-108.2-2.5-147.9-7V45.7c0-4.4-3.6-8-8-8c-0.2,0-0.3,0-0.5,0c-6.2,0.3-28,1.9-48,6.3
	C23.5,50.3,9.8,59.7,9.8,73v116.4c0,8.6,4.2,17.2,12.3,25.6c-6.3,6.1-10.8,14.4-12.3,25.4c-0.1,0.5-0.1,1,0,1.5v66.1
	c0,38.6,46,65.6,133,78c0.4,0.1,0.8,0.1,1.1,0.1c4.4,0,8-3.6,8-8v-64.4c0-4-2.9-7.4-6.9-7.9c-23.7-3.4-49.4-8.4-71.1-16.1v-43.4
	c3.1,1.3,6.4,2.5,9.7,3.7c48,17.3,109.2,26.8,172.3,26.8s124.4-9.5,172.3-26.8c3.3-1.2,6.6-2.4,9.7-3.7v43.4
	c-21.7,7.7-47.4,12.8-71.1,16.1c-3.9,0.6-6.9,3.9-6.9,7.9v64.4c0,4.4,3.6,8,8,8c0.4,0,0.8,0,1.1-0.1c87-12.4,133-39.4,133-78v-66
	C502.2,241.6,502.3,241.1,502.2,240.6z M415.9,49.9c42.6,3,74.3,12.7,74.3,23c0,2.7-3.6,16.4-74.3,25.8L415.9,49.9z M96.1,49.9v48.9
	C25.4,89.4,21.8,75.7,21.8,73C21.8,62.6,53.4,52.9,96.1,49.9L96.1,49.9z M139.9,373.5c-46.2-7-118.2-24.5-118.2-65.4v-36
	c6.8,7.9,16.5,15,29.1,21.1c21.2,10.4,51.1,18.5,89,24L139.9,373.5z M61.9,285c-23.2-10.1-39.6-24-40.1-43.1
	c1.2-8.4,4.8-14.5,9.5-18.7c8.1,6.3,18.4,12.3,30.6,18L61.9,285z M61.9,227.9c-6.8-3.3-13.3-7.1-19.6-11.3
	c6.3-2.3,12.9-3.4,19.6-3.5L61.9,227.9z M73.9,233.4v-24.2c0-4.3-3.4-7.8-7.6-8c-11.7-0.6-24.2,1.4-34.5,6.9
	c-6.5-6.4-10.1-12.7-10.1-18.6V91.1c13.1,8.5,37,14.9,72.7,19.6l1.6,0.2v130.6c-2.8-0.9-5.6-1.9-8.3-2.9
	C82.9,237,78.3,235.2,73.9,233.4L73.9,233.4z M108.1,245.4v-133c40,4.5,91.8,6.9,147.9,6.9s107.9-2.4,147.9-6.9v132.9
	c-43.1,12.6-94.8,19.5-147.9,19.5S151.2,257.9,108.1,245.4L108.1,245.4z M424.3,238.8c-2.7,1-5.5,1.9-8.4,2.9V110.9l1.6-0.2
	c35.7-4.8,59.6-11.2,72.7-19.6v98.3c0,5.9-3.5,12.3-10.1,18.6c-10.3-5.5-22.7-7.4-34.4-6.9c-4.3,0.2-7.6,3.7-7.6,8v24.2
	C433.7,235.2,429.1,237,424.3,238.8L424.3,238.8z M469.6,216.6c-6.2,4.3-12.8,8-19.6,11.3v-14.8
	C456.7,213.1,463.4,214.3,469.6,216.6L469.6,216.6z M450.1,241.2c12.3-5.6,22.5-11.7,30.6-18c4.6,4.3,8.2,10.3,9.5,18.7
	c-0.5,19-16.9,32.9-40.1,43.1V241.2z M490.2,308.1c0,40.9-72,58.4-118.1,65.4v-56.3c37.9-5.6,67.8-13.6,89-24
	c12.6-6.1,22.3-13.2,29.1-21.1L490.2,308.1z"/>
<path class="st0" d="M289.3,170.5c-12.1-18.4-36.9-23.4-55.3-11.3c-4.5,3-8.3,6.8-11.3,11.3c-7.4,1.4-12.7,8-12.4,15.6
	c0.3,6.1,1,18.4,10.1,24.6c10,19.6,34,27.5,53.6,17.5c7.5-3.8,13.7-10,17.5-17.5c9.1-6.2,9.8-18.5,10.1-24.6
	C302,178.5,296.7,171.8,289.3,170.5z M232.8,202.3c-8.2-0.5-9.8-5.4-10.4-16.8c-0.1-1.6,1-2.9,2.5-3.2c8.8-1.5,23.5-2.2,31.1-2.2
	s22.3,0.7,31.1,2.2c1.5,0.2,2.6,1.6,2.5,3.2c-0.6,11.4-2.2,16.3-10.4,16.8c-4.4,0.3-8.7-0.2-12.9-1.4c-6.7-1.9-13.9-1.9-20.6,0
	C241.5,202.1,237.1,202.6,232.8,202.3z M270.3,168.5c-5.6-0.3-10.8-0.5-14.3-0.5s-8.7,0.1-14.3,0.5
	C250.5,163.2,261.5,163.2,270.3,168.5z M238.5,214.2c3.5-0.2,7.1-0.8,10.5-1.8c4.6-1.3,9.4-1.3,14,0c3.4,1,6.9,1.6,10.5,1.8
	C263.3,222.5,248.7,222.5,238.5,214.2L238.5,214.2z"/>
<path class="st0" d="M369.1,415.8L348,391.8c-2.1-3.2-4.4-8.1-7.1-13.9c-6.8-14.5-15.7-33.7-31.9-46.7c11.5-14.9,10.3-42.2,2.7-62.7
	c-7.5-20.3-21.9-31-40.6-30.2c-4.1,0.2-26.1,0.2-30.2,0c-18.6-0.9-33.1,9.8-40.6,30.2c-8.1,21.7-8.9,51.1,5,65.3
	c0.9,0.9,2,1.8,3.1,2.5c-1.8,9.3-3.8,29.4,8.9,40.6c7.1,6.5,16.5,9.9,26.2,9.5l9.7,72.8c1,10.5,9.9,18.6,20.5,18.6
	c1.2,0,2.3-0.1,3.4-0.3c9.9-1.7,17.1-10.2,17.1-20.2l-0.6-63.2c3.7,4.8,17,23,17.2,23.2l28.6,29.4c0.2,0.2,0.4,0.4,0.7,0.6
	c9.5,7.2,23,5.3,30.2-4.2C376.4,434.9,376,423.5,369.1,415.8L369.1,415.8z M211.6,272.7c5.7-15.5,15.4-23,28.8-22.3
	c4.4,0.2,26.9,0.2,31.3,0c13.4-0.6,23.1,6.9,28.8,22.3c6.7,18,7.6,42.6-2.3,52.7c-2.4,2.5-9.1,5-27.4-1.4c7.3-3.7,14.7-7.8,22-11.8
	l2.1-1.2c8.1-4.6,11-14.9,6.4-23c-3.6-6.5-11.1-9.8-18.3-8.2c-7.7,1.7-16.9,4.2-26,6.9c-10.9-2.9-20.3-5.2-27.9-6.9
	c-7.7-1.8-15.6,2-19,9.2c-3.3,6.9-1.1,14,3.7,19.4c2,2.1,5,2.9,7.8,2.1c0.4-0.1,40.1-13.6,63.9-18.9c2.6-0.6,5.2,1.1,5.8,3.7
	c0.5,2.1-0.5,4.3-2.4,5.3l-2.1,1.2c-8.2,4.6-40.9,20.5-42.5,21.1c-15.5,5.9-26.3,6.8-30.5,2.6C203.9,315.3,204.9,290.7,211.6,272.7z
	 M234.8,293.5c-5.9,1.9-10.8,3.5-13.9,4.5c-0.9-2.5,0.3-5.3,2.8-6.3c0.9-0.3,1.9-0.4,2.8-0.2C229,292.1,231.8,292.8,234.8,293.5
	L234.8,293.5z M275,465.7c-4.6,0.8-9.1-2.3-9.9-6.9c0-0.3-0.1-0.5-0.1-0.8v-0.3l-9.7-73.1c4.6-1.2,9-2.7,13.4-4.5
	c4.1-1.6,8.8-1.3,12.7,0.8l0.7,76.4C282.1,461.4,279.1,465,275,465.7z M359.4,437.1c-3.3,3-8.2,3.3-11.9,0.8c0,0-21.5-21.1-28-28.8
	c-1.9-2.2-18.7-25.6-25.4-33.1c-7.5-8.4-19.5-11.3-30-7.1c-16.5,6.6-28.2,8.5-39.1-1c-7.2-6.4-6.8-19.6-5.3-28
	c10,0.7,22.6-3.1,36.1-8.9c14,6,25.1,9,33.8,9c3.1,0,6.2-0.4,9.2-1.4c15.5,11.2,24.4,30.2,31,44.3c3,6.4,5.5,11.9,8.2,15.8
	c0.1,0.2,0.3,0.4,0.5,0.6l21.5,24.4C363.5,427.7,363.2,433.6,359.4,437.1L359.4,437.1z"/>
</svg>
