<svg xmlns="http://www.w3.org/2000/svg" viewBox="0 0 1317.52 724.68"><defs><style>.cls-1{fill:#b7caff;}</style></defs><g id="Layer_2" data-name="Layer 2"><g id="Layer_1-2" data-name="Layer 1"><g id="Gruppe_34" data-name="Gruppe 34"><path id="Pfad_118" data-name="Pfad 118" class="cls-1" d="M25.51,142.66a116.4,116.4,0,0,1,49.36-17.09,117.86,117.86,0,0,1,67.21,13.29s108.2,61.31,164.1-21.65c0,0,72.14-95.57,135.26-81.15,0,0,72.13,7.22,63.12,75.75,0,0,27.05-24.93,68.53-13.37,0,0,34.26,18.77,30.66,63.86,0,0,3.6,43.28,63.12,39.68a69.17,69.17,0,0,0,22.54-7.44,70.86,70.86,0,0,0,28-27.73A623.3,623.3,0,0,1,765.15,92c8.54-11.49,17.13-22.19,25.62-32.15,9.7-11.58,28.54-30.57,58.07-41.56a134.57,134.57,0,0,1,30.83-7.45,158.2,158.2,0,0,1,32.68,1.8,161.08,161.08,0,0,1,61.09,23.46,164.34,164.34,0,0,0,30.88,18,167.13,167.13,0,0,0,66.85,14.26A806.34,806.34,0,0,0,1152.56,55a809.73,809.73,0,0,0,165-55V714.14s-271.94,30.66-356.7-12.62c0,0-88.37-48.69-106.4-126.24,0,0-7.22-36.06-43.28-43.28,0,0-21.64-3.61-48.69,19.84,0,0-50.87,50.49-103,46.89,0,0-90,12.62-136.88-57.71A241.15,241.15,0,0,0,433,438.92a215.91,215.91,0,0,0-144.82-24.14s-104.6,14.14-137.06-52.44c-13.41-26.83-22.92-48.91-29.15-64.18C115.1,281.4,110.72,266,97,250a110.47,110.47,0,0,0-26-22.11c-5.08-2.92-12.58-6.7-19.86-8.21-1.11-.23-3.72-.73-6.8-1.18-4.62-.67-7.75-.85-10.07-1.18C22,215.56,6.77,206.07,1.88,193.87-4.23,178.61,4.78,156.48,25.51,142.66Z"/></g></g></g></svg>