<?xml version="1.0" encoding="utf-8"?>
<!-- Generator: Adobe Illustrator 26.0.3, SVG Export Plug-In . SVG Version: 6.00 Build 0)  -->
<svg version="1.1" id="Layer_1" xmlns="http://www.w3.org/2000/svg" xmlns:xlink="http://www.w3.org/1999/xlink" x="0px" y="0px"
	 viewBox="0 0 292.5 448.1" style="enable-background:new 0 0 292.5 448.1;" xml:space="preserve">
<style type="text/css">
	.st0{opacity:0.2;enable-background:new    ;}
	.st1{fill:#424245;}
	.st2{opacity:0.2;}
</style>
<g id="robot_left_arm" class="st0">
	<path class="st1" d="M251.8,204.2c-1.2-1.8-3.6-2.5-5.6-1.5c-0.9,1.1-1.3,2.5-1.1,3.9l3.8,11.5l-7.1,6.7l-9.8-2.7l-2.5-8.5l7.4-7.8
		c1.6-1.3,2.5-3.2,2.3-5.3c-0.5-0.9-1.3-1.5-2.3-1.8c-1.3-0.3-2.6,0-3.6,0.9c-3.9,3.8-7.8,7.6-11.8,11.4l5.8,17.9l15.6,4.3
		l13.8-12.7L251.8,204.2z"/>
	<circle class="st1" cx="251.8" cy="219.2" r="5.1"/>
	<circle class="st1" cx="226.5" cy="212.3" r="5.1"/>
	<path class="st1" d="M179.8,309.8c0,0,14.7-28.9,20.3-35.9l17.3,6.3c0,0-15.4,32.8-19.9,40.8L179.8,309.8z"/>
	<path class="st1" d="M226.6,226.3l-28.5,32.6c0,0-6.6,12.9,5.5,23.8c0,0,15.3,9.1,23.1,0.1c0.5-2,4.4-4.6,6.1-10.8
		c0,0,11.5-30.7,13.3-40.4L226.6,226.3z"/>
	
		<ellipse transform="matrix(0.2635 -0.9647 0.9647 0.2635 -164.375 407.223)" class="st1" cx="184.5" cy="311.3" rx="20.4" ry="20.4"/>
</g>
<g class="st2">
	<path class="st1" d="M292.4,96c-2.5-50-44-58.7-44-58.7c-30.4-9.7-58,11.1-57.9,11.2l-21.2-6.1c-1.1-10.5-15.8-25.5-15.8-25.5
		C122.6-12.9,83.1,6.1,83.1,6.1c-35.3,19-33.7,54.4-33.7,54.4c-1,36.6,28.8,52.8,28.8,52.8c18.4,14.2,46.1,8.9,46.1,8.9l-10.4,36
		c-34.7-10.7-43.6,22.3-43.6,22.3l-20.5,70.9c8.1,4.5,12.3,14.1,9.7,23.4c-2.7,9.3-11.4,15.3-20.7,14.8c-6,25.1,22.6,39.4,22.6,39.4
		l17.4,5l-2.3,7.9c-17.1-2.5-34.4,0.3-49.8,8l-12.4-3.6c-2.6-0.4-5.2,0.9-6.4,3.2L0,376.9c0.5,5.7,3.9,6.6,3.9,6.6l5.1,1.7
		c1.6,42.9,57.5,58.1,57.5,58.1c60.7,17.5,80.7-17.6,80.7-17.6c9.1,2.8,11.2-2.7,11.2-2.7s7.6-27.1,7.8-27c1.8-2.3-0.4-5.8-0.4-5.8
		l-14.1-4.1c-11.9-22.4-38.5-33.6-38.5-33.6l2.2-7.8l17.4,4.9c29.5,2.9,39.2-19.7,39.9-21.7c-6.8-4.8-10.3-13.5-8-22.1
		c2.4-8.9,10.3-14.8,19-15l0.4-1.2l18.7-64.6c5.7-16,1-27.9,1-27.9c-5.6-16.8-25.1-20.1-25.1-20.1l10.4-36
		c29.4,27.2,63.2,13.4,63.2,13.4C296.6,134.2,292.4,96,292.4,96z"/>
</g>
<g id="robot_left_arm_00000000200713918068381170000005171931167139792023_" class="st0">
	<path class="st1" d="M25.1,154.1l5.2,18l15.6,4.5l14.3-12.3c-1.4-5.3-2.7-10.6-4.1-15.9c-0.4-1.3-1.4-2.2-2.6-2.6
		c-1-0.3-2-0.1-2.9,0.4c-1.2,1.6-1.5,3.8-0.8,5.7l2.3,10.5l-6.6,6l-9.8-2.8l-2.6-9.4l9.2-7.8c0.9-1.1,1.3-2.5,1.1-3.9
		c-1.2-1.8-3.6-2.5-5.6-1.6L25.1,154.1z"/>
	<circle class="st1" cx="30" cy="155.5" r="5.1"/>
	<circle class="st1" cx="55.3" cy="162.8" r="5.1"/>
	<path class="st1" d="M23.7,270.8c0.2-9.2,4.1-45.2,4.1-45.2l18.1,3.5c1.2,8.9-1.2,41.2-1.2,41.2L23.7,270.8z"/>
	<path class="st1" d="M28.5,169.1c-3.5,9.3-9.6,41.4-9.6,41.4c-1.8,6.2,0.1,10.4-0.4,12.4c2,11.7,19.8,11.9,19.8,11.9
		c16-3,17-17.4,17-17.4l-7.4-42.7L28.5,169.1z"/>
	
		<ellipse transform="matrix(0.2752 -0.9614 0.9614 0.2752 -229.9023 233.4082)" class="st1" cx="39.8" cy="269.2" rx="20.4" ry="20.4"/>
</g>
</svg>
