<?xml version="1.0" encoding="utf-8"?>
<!-- Generator: Adobe Illustrator 26.0.3, SVG Export Plug-In . SVG Version: 6.00 Build 0)  -->
<svg version="1.1" id="Layer_1" xmlns="http://www.w3.org/2000/svg" xmlns:xlink="http://www.w3.org/1999/xlink" x="0px" y="0px"
	 viewBox="0 0 239.8 333.4" style="enable-background:new 0 0 239.8 333.4;" xml:space="preserve">
<style type="text/css">
	.st0{fill:#B7CAFF;}
	.st1{fill:#8188A6;}
	.st2{fill:#FFFFFF;}
</style>
<path class="st0" d="M32.4,191.5h9.6c6.6,0,12,5.4,12,12v117.9c0,6.6-5.4,12-12,12h-9.6c-6.6,0-12-5.4-12-12V203.5
	C20.4,196.8,25.8,191.5,32.4,191.5z"/>
<ellipse class="st1" cx="37.2" cy="161.4" rx="37.2" ry="44.3"/>
<path class="st0" d="M198.3,188.8h8.7c6.6,0,12,5.4,12,12v120.6c0,6.6-5.4,12-12,12h-8.7c-6.6,0-12-5.4-12-12V200.8
	C186.3,194.1,191.6,188.8,198.3,188.8z"/>
<ellipse class="st1" cx="202.6" cy="161.4" rx="37.2" ry="44.3"/>
<path class="st0" d="M111.2,56.1c0-4.4,3.6-8,8-8h58.9V12c0-6.6-5.4-12-12-12c0,0,0,0,0,0H50c-6.6,0-12,5.4-12,12v60.6
	c0,0.5,0,1,0.1,1.5V80L38,103.6l20.7-12l12.1-7h40.5V56.1z"/>
<path class="st2" d="M191.7,44.1h-72.5c-6.6,0-12,5.4-12,12v34.3c0,6.6,5.4,12,12,12h62l8.3,4.8l14.2,8.3l-0.1-16.3v-7.4
	c0.1-0.5,0.1-0.9,0.1-1.4V56.1C203.8,49.5,198.4,44.1,191.7,44.1L191.7,44.1z"/>
<path class="st1" d="M36.5,214h3c3.2,0,5.7,2.6,5.7,5.7v59.9c0,3.2-2.6,5.7-5.7,5.7h-3c-3.2,0-5.7-2.6-5.7-5.7v-59.9
	C30.8,216.6,33.3,214,36.5,214z"/>
<path class="st1" d="M200.3,214h2.3c3.2,0,5.7,2.6,5.7,5.7v59.9c0,3.2-2.6,5.7-5.7,5.7h-2.3c-3.2,0-5.7-2.6-5.7-5.7v-59.9
	C194.6,216.6,197.2,214,200.3,214z"/>
<path class="st0" d="M182.3,98.4h-63.1c-4.4,0-8-3.6-8-8V56.1c0-4.4,3.6-8,8-8h72.5c4.4,0,8,3.6,8,8v34.3c0,0.3,0,0.6-0.1,0.9v0.2
	l0.1,17L182.3,98.4z"/>
</svg>
