<svg xmlns="http://www.w3.org/2000/svg" viewBox="0 0 369.07 369.1"><defs><style>.cls-1{fill:#8188a6;}.cls-2{fill:#fff;}</style></defs><g id="Layer_2" data-name="Layer 2"><g id="Layer_1-2" data-name="Layer 1"><path class="cls-1" d="M357.6,120.63A184.51,184.51,0,0,0,126.77,9.32C32.08,40.54-20.3,141.09,7.39,236.07Z"/><path class="cls-1" d="M361.68,133,11.48,248.47C45.7,341.3,147.6,391,242.3,359.77S389.37,228,361.68,133Z"/><path class="cls-2" d="M126.16,364.39c11.91-44.17,14.31-86.87,7.11-126.91a253,253,0,0,0-35.2-90.34C68.06,99.49,31.49,75.27,31.12,75l6.77-10.36c1.59,1,39.22,26,70.65,75.87a265,265,0,0,1,36.91,94.75c7.53,41.85,5.05,86.37-7.34,132.32Z"/><path class="cls-2" d="M237.84,166.06a259.68,259.68,0,0,1-12.28-62c-4.28-57,10.68-98.15,11.32-99.87l11.25,4.17-5.62-2.08,5.62,2.08c-.14.4-14.77,40.79-10.56,95.32a244.85,244.85,0,0,0,24.75,90.49c17.47,35.23,43.9,67,78.56,94.51l-7.46,9.41c-36.15-28.67-63.74-62-82-98.9A254.47,254.47,0,0,1,237.84,166.06Z"/><rect class="cls-2" x="-2.81" y="178.02" width="373.46" height="13.88" transform="translate(-48.56 66.67) rotate(-18.19)"/></g></g></svg>