<svg xmlns="http://www.w3.org/2000/svg" viewBox="0 0 171.26 291.08"><defs><style>.cls-1{fill:#151c28;}.cls-2{fill:#fff;}.cls-3{fill:#8188a6;}</style></defs><g id="Layer_2" data-name="Layer 2"><g id="Layer_1-2" data-name="Layer 1"><rect class="cls-1" x="4.04" y="38.31" width="121.87" height="73.32" rx="12" transform="translate(-14.1 15.06) rotate(-11.93)"/><rect class="cls-1" x="61.01" y="88.44" width="17.62" height="165.89"/><rect class="cls-2" x="119.01" y="41.33" width="11.34" height="40.77" rx="5.67" transform="translate(259.42 96.32) rotate(168.07)"/><rect class="cls-1" x="116.5" y="-10.34" width="9.21" height="69.63" transform="translate(68.44 -87.29) rotate(53.34)"/><rect class="cls-1" x="131.21" y="60.84" width="9.87" height="69.63" transform="translate(243.39 -31.56) rotate(95.04)"/><rect class="cls-1" x="37.66" y="234.09" width="10.11" height="67.38" rx="5.06" transform="translate(221.75 64.12) rotate(50.38)"/><rect class="cls-1" x="92.53" y="234.09" width="10.11" height="67.38" rx="5.06" transform="translate(-174.53 183.05) rotate(-52.68)"/><circle class="cls-3" cx="69.82" cy="249.84" r="11.89"/><path class="cls-1" d="M146.28,0,127.51,14,106.7,31.3l-26.86,11-15.2-4.74q20.69-8.34,42.77-18.49Q127.82,9.63,146.28,0Z"/><path class="cls-1" d="M74.08,109.46,98.63,103l28.23-8.9,30.16-.7,11,10c-15.44.27-31.64.91-48.56,2Q95.95,107,74.08,109.46Z"/></g></g></svg>