<svg xmlns="http://www.w3.org/2000/svg" viewBox="0 0 402.05 515.25"><defs><style>.cls-1{fill:#f3f2ef;stroke-width:8px;}.cls-1,.cls-3{stroke:#1d1d1b;stroke-miterlimit:10;}.cls-2{fill:#8188a6;}.cls-3{fill:none;stroke-width:4px;}</style></defs><g id="Layer_2" data-name="Layer 2"><g id="Layer_1-2" data-name="Layer 1"><rect class="cls-1" x="70.32" y="35.56" width="261.4" height="444.13" transform="translate(-72.99 79.58) rotate(-19.02)"/><rect class="cls-1" x="70.32" y="35.56" width="261.4" height="444.13"/><polygon class="cls-2" points="91.72 198.39 156.09 96.03 219.57 198.39 262.34 150.06 309.15 198.39 91.72 198.39"/><rect class="cls-3" x="92.18" y="58.7" width="216.97" height="139.25"/><rect x="90.28" y="218.93" width="138.69" height="6.95" rx="3.48"/><rect x="90.28" y="236.2" width="190.92" height="6.95" rx="3.48"/><rect x="90.28" y="254.15" width="170.86" height="6.95" rx="3.48"/><rect x="90.28" y="272.1" width="218.88" height="6.95" rx="3.48"/><rect x="90.28" y="290.05" width="106.13" height="6.95" rx="3.48"/><rect x="90.28" y="308" width="170.86" height="6.95" rx="3.48"/><rect x="90.28" y="325.95" width="218.88" height="6.95" rx="3.48"/><rect x="90.28" y="343.9" width="106.13" height="6.95" rx="3.48"/><rect x="90.28" y="455.91" width="76.79" height="6.95" rx="3.48"/></g></g></svg>