<?xml version="1.0" encoding="utf-8"?>
<!-- Generator: Adobe Illustrator 26.0.3, SVG Export Plug-In . SVG Version: 6.00 Build 0)  -->
<svg version="1.1" id="Layer_1" xmlns="http://www.w3.org/2000/svg" xmlns:xlink="http://www.w3.org/1999/xlink" x="0px" y="0px"
	 viewBox="0 0 226.2 534.3" style="enable-background:new 0 0 226.2 534.3;" xml:space="preserve">
<style type="text/css">
	.st0{fill:#B7CAFF;}
	.st1{fill:#161D29;}
</style>
<g id="Layer_2_00000162349293332574414590000000610949274244801164_">
	<g id="Layer_1-2">
		<path class="st0" d="M15,500.7h196.2c8.3,0,15,6.7,15,15v3.6c0,8.3-6.7,15-15,15H15c-8.3,0-15-6.7-15-15v-3.6
			C0,507.5,6.7,500.7,15,500.7z"/>
		<path class="st0" d="M100.3,304c1.2,0.8,24.3,0.9,25.7,0v198.5h-25.7V304z"/>
		<path class="st0" d="M97.1,0h32.1c37.2,0,67.3,30.1,67.3,67.3v199.5c0,37.2-30.1,67.3-67.3,67.3H97.1c-37.2,0-67.3-30.1-67.3-67.3
			V67.3C29.8,30.1,59.9,0,97.1,0z"/>
		<path class="st1" d="M29.8,109.5h64.5c6,0,10.9,4.9,10.9,10.9l0,0l0,0c0,6-4.9,10.9-10.9,10.9c0,0,0,0,0,0H29.8l0,0V109.5
			L29.8,109.5z"/>
		<path class="st1" d="M196.5,131.3H132c-6,0-10.9-4.9-10.9-10.9l0,0c0-6,4.9-10.9,10.9-10.9h64.5l0,0V131.3L196.5,131.3z"/>
		<path class="st1" d="M29.8,143.8h64.5c6,0,10.9,4.9,10.9,10.9l0,0c0,6-4.9,10.9-10.9,10.9H29.8l0,0V143.8L29.8,143.8z"/>
		<path class="st1" d="M196.5,165.6H132c-6,0-10.9-4.9-10.9-10.9l0,0c0-6,4.9-10.9,10.9-10.9h64.5l0,0V165.6L196.5,165.6
			L196.5,165.6z"/>
		<path class="st1" d="M29.8,178.2h64.5c6,0,10.9,4.9,10.9,10.9l0,0c0,6-4.9,10.9-10.9,10.9c0,0,0,0,0,0H29.8l0,0V178.2L29.8,178.2z
			"/>
		<path class="st1" d="M196.5,200H132c-6,0-10.9-4.9-10.9-10.9l0,0c0-6,4.9-10.9,10.9-10.9h64.5l0,0V200L196.5,200L196.5,200z"/>
		<rect x="29.8" y="240.2" class="st1" width="166.7" height="14.2"/>
	</g>
</g>
</svg>
