<svg xmlns="http://www.w3.org/2000/svg" viewBox="0 0 540 372.2"><defs><style>.cls-1{fill:#8188a6;}.cls-2{fill:#f3f2ef;}.cls-3{fill:#151c28;}</style></defs><g id="Layer_2" data-name="Layer 2"><g id="Layer_1-2" data-name="Layer 1"><rect class="cls-1" y="40.28" width="540" height="331.93" rx="30.02"/><path class="cls-1" d="M349.1,0H190.9A6.25,6.25,0,0,0,186,4c-1.5,3.72-11.08,48.4-11.08,48.4a12,12,0,0,0,12,12H353.12a12,12,0,0,0,12-12s-9.86-43.77-11-48.08A5.43,5.43,0,0,0,349.1,0Z"/><circle class="cls-2" cx="270" cy="209.95" r="118.81"/><circle class="cls-3" cx="270" cy="209.95" r="110.79"/><circle class="cls-2" cx="270" cy="209.95" r="94.87"/><rect class="cls-2" x="426.05" y="64.4" width="81.91" height="26.73" rx="11.9"/></g></g></svg>