<?xml version="1.0" encoding="utf-8"?>
<!-- Generator: Adobe Illustrator 26.0.3, SVG Export Plug-In . SVG Version: 6.00 Build 0)  -->
<svg version="1.1" id="Layer_1" xmlns="http://www.w3.org/2000/svg" xmlns:xlink="http://www.w3.org/1999/xlink" x="0px" y="0px"
	 viewBox="0 0 363.8 428.4" style="enable-background:new 0 0 363.8 428.4;" xml:space="preserve">
<style type="text/css">
	.st0{fill:none;stroke:#000000;stroke-width:3;stroke-miterlimit:10;}
	.st1{fill:#FFFFFF;}
	.st2{fill:#8188A6;}
</style>
<g id="Layer_2_00000052102978361553278080000000069866591822896022_">
	<g id="Layer_1-2">
		<line class="st0" x1="1.7" y1="189.4" x2="126" y2="427.8"/>
		<line class="st0" x1="49.4" y1="211.2" x2="155.2" y2="424.4"/>
		<line class="st0" x1="115.4" y1="206.8" x2="181.8" y2="420.7"/>
		<line class="st0" x1="181.8" y1="195.1" x2="181.8" y2="420.7"/>
		<line class="st0" x1="250" y1="208.8" x2="181.8" y2="420.7"/>
		<line class="st0" x1="314.9" y1="207.2" x2="211.5" y2="420.7"/>
		<line class="st0" x1="361.6" y1="188.5" x2="236.1" y2="427.8"/>
		<path class="st1" d="M16.1,187.9c7.6,0,14.9,2.6,20.9,7.3c5.8,4.6,9.9,11.1,11.6,18.3h1.8c4.2-17.9,22.2-29,40.1-24.7
			c12.3,2.9,21.8,12.5,24.7,24.7h1.8c4.2-17.9,22.2-29,40.1-24.7c12.3,2.9,21.8,12.5,24.7,24.7h1.8c4.2-17.9,22.2-29,40.1-24.7
			c12.3,2.9,21.8,12.5,24.7,24.7h1.8c4.3-17.9,22.2-29,40.1-24.7c11.8,2.8,21.1,11.7,24.4,23.4c5-17.7,23.4-28,41.1-23
			c2.8,0.8,5.5,1.9,8,3.4c0.4-24.6-4.2-49-13.5-71.8C325.6,60.8,259.4-4.4,171.9,0.3C92.7,4.4,36.9,63.6,14.3,117
			C4.4,140.8-0.5,166.3,0,192.1C4.9,189.4,10.5,187.9,16.1,187.9z"/>
		<path class="st2" d="M181.8,0c0,0-81.3-3.6-135,64.8c0,0-46.4,46.4-46.9,127.3c0,0,34.9-17.7,48.5,21.5
			C48.5,213.5,38.9,87.8,181.8,0z"/>
		<path class="st2" d="M181.8,0c-13.7,21-25.3,43.3-34.8,66.5c-19,46.7-29.2,96.6-30,147.1c1.4-5.1,3.9-9.9,7.4-13.9
			c9.2-10.4,21.9-11.6,25-11.8c0,0,26.1-0.3,32.4,25.6C181.8,213.5,202.8,88.4,181.8,0z"/>
		<path class="st2" d="M181.8,0c14.7,13,27.6,28.1,38.2,44.6c43.5,68.2,34.8,142.1,30.3,168.9c3.9-16.5,19.6-27.5,36.5-25.4
			c13.4,1.5,24.5,11,28,24c2-17.1,6.1-70.2-26-124.8C253.1,26.8,197.1,5.3,181.8,0z"/>
	</g>
</g>
</svg>
