<svg xmlns="http://www.w3.org/2000/svg" viewBox="0 0 619.16 500.07"><defs><style>.cls-1{fill:#151c28;}.cls-2{fill:#fff;}.cls-3{fill:#8188a6;}</style></defs><g id="Layer_2" data-name="Layer 2"><g id="Layer_1-2" data-name="Layer 1"><rect class="cls-1" x="157.89" width="18.92" height="218.07"/><rect class="cls-1" x="442.35" width="18.92" height="218.07"/><rect class="cls-2" x="3.5" y="170.89" width="612.16" height="325.68" rx="5"/><path class="cls-3" d="M610.66,500.07H8.5a8.51,8.51,0,0,1-8.5-8.5V175.89a8.51,8.51,0,0,1,8.5-8.5H610.66a8.51,8.51,0,0,1,8.5,8.5V491.57A8.51,8.51,0,0,1,610.66,500.07ZM8.5,174.39a1.5,1.5,0,0,0-1.5,1.5V491.57a1.5,1.5,0,0,0,1.5,1.5H610.66a1.5,1.5,0,0,0,1.5-1.5V175.89a1.5,1.5,0,0,0-1.5-1.5Z"/><rect class="cls-1" x="177.11" y="128.51" width="265.54" height="7.93"/><rect class="cls-3" x="133.49" y="152.37" width="348.43" height="35.63" rx="14.84"/></g></g></svg>