<svg xmlns="http://www.w3.org/2000/svg" viewBox="0 0 504.66 414.3"><defs><style>.cls-1{fill:#f3f2ef;}.cls-2{fill:#8188a6;}.cls-3{fill:none;stroke:#1d1d1b;stroke-miterlimit:10;stroke-width:4px;}</style></defs><g id="Layer_2" data-name="Layer 2"><g id="Layer_1-2" data-name="Layer 1"><rect class="cls-1" x="192.88" y="325.65" width="118.9" height="78.44"/><rect class="cls-2" width="504.66" height="335.56" rx="12"/><rect class="cls-1" x="145.32" y="396.6" width="214.02" height="17.7" rx="8.85"/><rect class="cls-1" x="16.46" y="20.48" width="471.74" height="294.6" rx="12"/><polygon class="cls-2" points="38.46 125.7 78.06 62.73 117.11 125.7 143.41 95.96 172.22 125.7 38.46 125.7"/><rect class="cls-3" x="38.74" y="39.76" width="133.47" height="85.66"/><polygon class="cls-2" points="176.34 294.12 215.94 231.15 254.99 294.12 281.3 264.38 310.1 294.12 176.34 294.12"/><rect class="cls-3" x="176.62" y="208.18" width="133.47" height="85.66"/><rect x="36.55" y="147.58" width="137.53" height="5" rx="2.5"/><rect x="36.55" y="159.84" width="137.72" height="5" rx="2.5"/><rect x="36.62" y="172.11" width="137.72" height="5" rx="2.5"/><rect x="36.62" y="184.38" width="137.72" height="5" rx="2.5"/><rect x="36.62" y="196.65" width="120.22" height="5" rx="2.5"/><rect x="329.39" y="207.18" width="137.53" height="5" rx="2.5"/><rect x="329.39" y="219.45" width="137.72" height="5" rx="2.5"/><rect x="329.46" y="231.72" width="137.72" height="5" rx="2.5"/><rect x="329.46" y="243.99" width="137.72" height="5" rx="2.5"/><rect x="329.46" y="256.25" width="120.22" height="5" rx="2.5"/></g></g></svg>