<svg xmlns="http://www.w3.org/2000/svg" viewBox="0 0 426 544"><defs><style>.cls-1{fill:#8188a6;}.cls-2{fill:#f3f2ef;}.cls-3{fill:none;stroke:#000;stroke-miterlimit:10;stroke-width:4px;}.cls-4{fill:#86c598;}</style></defs><g id="Layer_2" data-name="Layer 2"><g id="Layer_1-2" data-name="Layer 1"><rect class="cls-1" width="426" height="544" rx="12"/><rect class="cls-2" x="36.87" y="42.69" width="352.27" height="408.15" rx="12"/><rect x="152.94" y="73.31" width="205.94" height="6.95" rx="3.48"/><rect x="152.94" y="90.04" width="163.16" height="6.95" rx="3.48"/><rect x="152.94" y="106.77" width="181.9" height="6.95" rx="3.48"/><rect class="cls-3" x="76.52" y="75.31" width="36.74" height="36.74" rx="12"/><rect x="152.94" y="147.19" width="90.95" height="6.95" rx="3.48"/><rect x="152.94" y="163.93" width="163.16" height="6.95" rx="3.48"/><rect x="152.94" y="180.66" width="181.9" height="6.95" rx="3.48"/><rect class="cls-3" x="76.52" y="149.19" width="36.74" height="36.74" rx="12"/><rect x="152.94" y="223.08" width="138.69" height="6.95" rx="3.48"/><rect x="152.94" y="239.82" width="199.19" height="6.95" rx="3.48"/><rect x="152.94" y="256.55" width="81.58" height="6.95" rx="3.48"/><rect class="cls-3" x="76.52" y="225.08" width="36.74" height="36.74" rx="12"/><rect x="152.94" y="300.97" width="107.77" height="6.95" rx="3.48"/><rect x="160.44" y="317.7" width="59.56" height="6.95" rx="3.48"/><rect x="152.94" y="334.44" width="181.9" height="6.95" rx="3.48"/><rect class="cls-3" x="76.52" y="302.97" width="36.74" height="36.74" rx="12"/><rect class="cls-4" x="84.86" y="225.36" width="7.05" height="28.62" rx="3.52" transform="translate(-120.24 92.26) rotate(-34.51)"/><rect class="cls-4" x="104.36" y="201.25" width="7.05" height="55.03" rx="3.52" transform="translate(71.92 479.12) rotate(-146.58)"/></g></g></svg>