<svg xmlns="http://www.w3.org/2000/svg" viewBox="0 0 560.26 407.87"><defs><style>.cls-1{fill:#8188a6;}.cls-2{fill:#151c28;}.cls-3{fill:#b7caff;}.cls-4{fill:#d32947;}.cls-5{fill:#73e5a2;}</style></defs><g id="Layer_2" data-name="Layer 2"><g id="camera_film"><circle class="cls-1" cx="269.22" cy="69.17" r="69.17"/><circle class="cls-2" cx="269.22" cy="28.1" r="14.71"/><circle class="cls-2" cx="228.15" cy="69.17" r="14.71"/><circle class="cls-2" cx="269.22" cy="110.25" r="14.71"/><circle class="cls-2" cx="310.3" cy="69.17" r="14.71"/></g><g id="Layer_1-2" data-name="Layer 1"><circle class="cls-1" cx="124.32" cy="81.06" r="57.28"/><polygon class="cls-1" points="549.67 156.88 549.67 276.21 549.67 395.54 446.33 335.87 342.99 276.21 446.33 216.54 549.67 156.88"/><rect class="cls-1" y="165.08" width="425.85" height="242.79" rx="15"/><rect class="cls-3" x="425.85" y="219.94" width="10.53" height="113.8" rx="5.26"/><rect class="cls-3" x="544.4" y="155.88" width="15.85" height="240.91" rx="7.93"/><circle class="cls-4" cx="37.56" cy="202.22" r="15.05"/><circle class="cls-5" cx="79.15" cy="202.22" r="15.05"/><rect class="cls-2" x="69.97" y="140.35" width="271.93" height="24.73"/><rect class="cls-3" x="278.86" y="328.96" width="121.16" height="55.28" rx="12"/><rect class="cls-3" x="198.01" y="-0.48" width="15.85" height="279.8" rx="7.93" transform="translate(66.51 345.36) rotate(-90)"/><circle class="cls-2" cx="124.32" cy="81.06" r="30.11"/></g></g></svg>