<svg xmlns="http://www.w3.org/2000/svg" xmlns:xlink="http://www.w3.org/1999/xlink" viewBox="0 0 302.88 309.57"><defs><style>.cls-1{fill:#73e5a2;}.cls-2{fill:url(#linear-gradient);}.cls-3{fill:#b7caff;}.cls-4{fill:#8188a6;}.cls-5{fill:#fff;}.cls-6{fill:#f2f2f2;}</style><linearGradient id="linear-gradient" x1="151.44" y1="147.14" x2="302.88" y2="147.14" gradientUnits="userSpaceOnUse"><stop offset="0" stop-color="#0071bc"/><stop offset="0.98" stop-color="#1a1a1a"/></linearGradient></defs><g id="Layer_2" data-name="Layer 2"><g id="Layer_1-2" data-name="Layer 1"><path class="cls-1" d="M15,0H161.16a0,0,0,0,1,0,0V294.27a0,0,0,0,1,0,0H15a15,15,0,0,1-15-15V15A15,15,0,0,1,15,0Z"/><path class="cls-2" d="M151.44,0H287.86a15,15,0,0,1,15,15V279.23a15,15,0,0,1-15,15H151.44a0,0,0,0,1,0,0V0A0,0,0,0,1,151.44,0Z"/><rect class="cls-3" x="47.7" y="167.68" width="33.57" height="141.89" rx="12"/><ellipse class="cls-4" cx="64.49" cy="137.62" rx="37.16" ry="44.26"/><rect class="cls-4" x="58.1" y="190.2" width="14.43" height="71.34" rx="5.72"/><rect class="cls-3" x="219.44" y="167.68" width="33.57" height="141.89" rx="12"/><ellipse class="cls-4" cx="236.23" cy="137.62" rx="37.16" ry="44.26"/><rect class="cls-4" x="229.84" y="190.2" width="14.43" height="71.34" rx="5.72"/></g><g id="stars_layer"><path class="cls-5" d="M224.12,43.11a1.5,1.5,0,0,0,0-3,1.5,1.5,0,0,0,0,3Z"/><path class="cls-5" d="M271.68,77.46a1.5,1.5,0,0,0,0-3,1.5,1.5,0,0,0,0,3Z"/><path class="cls-5" d="M218.83,76.14a1.5,1.5,0,0,0,0-3,1.5,1.5,0,0,0,0,3Z"/><path class="cls-5" d="M168,199.66a1.5,1.5,0,0,0,0-3,1.5,1.5,0,0,0,0,3Z"/><path class="cls-5" d="M182.5,240a1.5,1.5,0,0,0,0-3,1.5,1.5,0,0,0,0,3Z"/><path class="cls-5" d="M286.21,272.33a1.5,1.5,0,0,0,0-3,1.5,1.5,0,0,0,0,3Z"/><path class="cls-5" d="M269,206.27a1.5,1.5,0,0,0,0-3,1.5,1.5,0,0,0,0,3Z"/><path class="cls-5" d="M286.87,182.49a1.5,1.5,0,0,0,0-3,1.5,1.5,0,0,0,0,3Z"/><path class="cls-5" d="M168.63,29.24a1.5,1.5,0,0,0,0-3,1.5,1.5,0,0,0,0,3Z"/><path class="cls-5" d="M204.3,19.33a1.5,1.5,0,0,0,0-3,1.5,1.5,0,0,0,0,3Z"/><path class="cls-5" d="M278.94,12.73a1.5,1.5,0,0,0,0-3,1.5,1.5,0,0,0,0,3Z"/><path class="cls-5" d="M188.45,277a1.5,1.5,0,0,0,0-3,1.5,1.5,0,0,0,0,3Z"/><path class="cls-5" d="M179.86,130.31a1.5,1.5,0,0,0,0-3,1.5,1.5,0,0,0,0,3Z"/><path class="cls-5" d="M201.66,193.72a1.5,1.5,0,0,0,0-3,1.5,1.5,0,0,0,0,3Z"/><path class="cls-5" d="M172.59,249.21a1.5,1.5,0,0,0,0-3,1.5,1.5,0,0,0,0,3Z"/><path class="cls-5" d="M176.56,121.72a1.5,1.5,0,0,0,0-3,1.5,1.5,0,0,0,0,3Z"/><path class="cls-5" d="M156.08,63.59a1.5,1.5,0,0,0,0-3,1.5,1.5,0,0,0,0,3Z"/><path class="cls-6" d="M284.89,4.8a1.5,1.5,0,0,0,0-3,1.5,1.5,0,0,0,0,3Z"/><path class="cls-6" d="M255.16,61.61a1.5,1.5,0,0,0,0-3,1.5,1.5,0,0,0,0,3Z"/><path class="cls-6" d="M296.12,43.78a1.5,1.5,0,0,0,0-3,1.5,1.5,0,0,0,0,3Z"/><path class="cls-6" d="M158.06,162a1.5,1.5,0,0,0,0-3,1.5,1.5,0,0,0,0,3Z"/></g></g></svg>